<svg xmlns="http://www.w3.org/2000/svg" width="1200" height="630" viewBox="0 0 1200 630">
  <defs>
    <linearGradient id="g" x1="0" y1="0" x2="1" y2="1">
      <stop offset="0%" stop-color="#0F172A"/>
      <stop offset="100%" stop-color="#0B3B5F"/>
    </linearGradient>
  </defs>
  <rect width="1200" height="630" fill="url(#g)"/>
  <!-- Logomark (scaled) -->
  <g transform="translate(80,155) scale(2.0)">
    <path d="M90 22c-26 0-47 20.8-47 46.4 0 33.7 37.8 61.7 44.5 66.3a4 4 0 0 0 4.9 0C99.1 130 137 102 137 68.4 137 42.8 116 22 90 22Z"
          stroke="white" stroke-width="8" fill="none"/>
    <path d="M90 49l8.9 18 19.9 2.9-14.4 14.1 3.4 19.7L90 95.4 71.2 103.7l3.4-19.7L60.2 69.9l19.9-2.9L90 49Z"
          stroke="white" stroke-width="6" stroke-dasharray="10 8" fill="none"/>
    <circle cx="124" cy="114" r="20" fill="transparent" stroke="white" stroke-width="6"/>
    <rect x="112" y="112" width="24" height="4" rx="2" fill="white"/>
  </g>
  <text x="480" y="260" font-family="Inter, system-ui, -apple-system, Segoe UI, Roboto, sans-serif" font-size="72" font-weight="800" fill="#FFFFFF">Takedown Atlas</text>
  <text x="480" y="320" font-family="Inter, system-ui, -apple-system, Segoe UI, Roboto, sans-serif" font-size="28" font-weight="500" fill="#D5E2EE">Transparency for removed reviews</text>
  <text x="480" y="370" font-family="Inter, system-ui, -apple-system, Segoe UI, Roboto, sans-serif" font-size="20" fill="#B6C6D6">Open-source • Research-grade • Privacy-first</text>
</svg>
