<svg width="1024" height="256" viewBox="0 0 1024 256" xmlns="http://www.w3.org/2000/svg" fill="none">
  <title>Takedown Atlas – Primary Logo</title>
  <rect width="1024" height="256" fill="white"/>
  <g transform="translate(16,16) scale(1.2)">
    <!-- insert logomark -->
    <g transform="translate(0,0)">
      <path d="M90 22c-26 0-47 20.8-47 46.4 0 33.7 37.8 61.7 44.5 66.3a4 4 0 0 0 4.9 0C99.1 130 137 102 137 68.4 137 42.8 116 22 90 22Z"
            stroke="#0B3B5F" stroke-width="8" />
      <path d="M90 49l8.9 18 19.9 2.9-14.4 14.1 3.4 19.7L90 95.4 71.2 103.7l3.4-19.7L60.2 69.9l19.9-2.9L90 49Z"
            stroke="#0B3B5F" stroke-width="6" stroke-dasharray="10 8" />
      <circle cx="124" cy="114" r="20" fill="white" stroke="#0B3B5F" stroke-width="6"/>
      <rect x="112" y="112" width="24" height="4" rx="2" fill="#0B3B5F"/>
    </g>
    <!-- wordmark -->
    <g transform="translate(190,45)">
      <text x="0" y="0" font-family="Inter, system-ui, -apple-system, Segoe UI, Roboto, sans-serif"
            font-size="64" font-weight="700" fill="#0B3B5F">Takedown Atlas</text>
      <text x="2" y="40" font-family="Inter, system-ui, -apple-system, Segoe UI, Roboto, sans-serif"
            font-size="20" font-weight="500" fill="#334155">Transparency for removed reviews</text>
    </g>
  </g>
</svg>
